<svg width="353" height="20" viewBox="0 0 353 20" fill="none" xmlns="http://www.w3.org/2000/svg">
<mask id="path-1-inside-1_406_9005" fill="white">
<path d="M0 0H353C353 11.0457 344.046 20 333 20H20C8.9543 20 0 11.0457 0 0Z"/>
</mask>
<path d="M0 0H353H0ZM354 0C354 11.598 344.598 21 333 21H20C8.40202 21 -1 11.598 -1 0H1C1 10.4934 9.50659 19 20 19H333C343.493 19 352 10.4934 352 0H354ZM20 21C8.40202 21 -1 11.598 -1 0H1C1 10.4934 9.50659 19 20 19V21ZM354 0C354 11.598 344.598 21 333 21V19C343.493 19 352 10.4934 352 0H354Z" fill="#848484" mask="url(#path-1-inside-1_406_9005)"/>
</svg>
