<svg width="353" height="20" viewBox="0 0 353 20" fill="none" xmlns="http://www.w3.org/2000/svg">
<mask id="path-1-inside-1_406_9004" fill="white">
<path d="M0 20C0 8.95431 8.95431 0 20 0H333C344.046 0 353 8.95431 353 20H0Z"/>
</mask>
<path d="M-1 20C-1 8.40202 8.40202 -1 20 -1H333C344.598 -1 354 8.40202 354 20H352C352 9.50659 343.493 1 333 1H20C9.50659 1 1 9.50659 1 20H-1ZM353 20H0H353ZM-1 20C-1 8.40202 8.40202 -1 20 -1V1C9.50659 1 1 9.50659 1 20H-1ZM333 -1C344.598 -1 354 8.40202 354 20H352C352 9.50659 343.493 1 333 1V-1Z" fill="#848484" mask="url(#path-1-inside-1_406_9004)"/>
</svg>
