<svg width="30" height="30" viewBox="0 0 30 30" fill="none" xmlns="http://www.w3.org/2000/svg">
<g clip-path="url(#clip0_421_9013)">
<path d="M23.6031 0H6.39844C2.86468 0 0 2.86468 0 6.39844V23.6031C0 27.1368 2.86468 30.0015 6.39844 30.0015H23.6031C27.1368 30.0015 30.0015 27.1368 30.0015 23.6031V6.39844C30.0015 2.86468 27.1368 0 23.6031 0Z" fill="#DEDEDE"/>
<path fill-rule="evenodd" clip-rule="evenodd" d="M14.5738 6.22112C9.93127 6.44191 6.26794 10.3083 6.28187 14.9558C6.28625 16.3711 6.6279 17.7075 7.23097 18.8881L6.30543 23.3808C6.25516 23.624 6.47448 23.8369 6.71589 23.7797L11.1182 22.7368C12.2492 23.3001 13.5199 23.6254 14.8644 23.6461C19.6092 23.7184 23.5657 19.9511 23.7139 15.2077C23.8722 10.1232 19.6757 5.97793 14.5738 6.22112ZM19.8268 19.7559C18.5375 21.0451 16.8232 21.7552 15.0001 21.7552C13.9324 21.7552 12.9101 21.5155 11.9616 21.0431L11.3489 20.7378L8.64954 21.3772L9.21751 18.6191L8.91562 18.0277C8.42322 17.0634 8.17372 16.0208 8.17372 14.9288C8.17372 13.1052 8.88373 11.3913 10.173 10.1017C11.4506 8.82409 13.1928 8.10247 15.0001 8.10247C16.8233 8.10247 18.5376 8.81272 19.8268 10.1017C21.1161 11.391 21.8261 13.1053 21.8261 14.9285C21.8264 16.7358 21.1048 18.4779 19.8268 19.7559Z" fill="#242323"/>
<path fill-rule="evenodd" clip-rule="evenodd" d="M19.2309 16.8194L17.5422 16.3345C17.3203 16.271 17.0812 16.3339 16.9194 16.4987L16.5066 16.9193C16.3323 17.0968 16.0682 17.1538 15.8378 17.0606C15.0389 16.7375 13.3584 15.2431 12.9296 14.4959C12.8055 14.2804 12.8261 14.0111 12.9781 13.8141L13.3386 13.3478C13.4798 13.1651 13.5094 12.9196 13.4162 12.7084L12.7059 11.1013C12.5357 10.7167 12.0438 10.6046 11.7225 10.8762C11.2514 11.2751 10.6921 11.8805 10.6241 12.5516C10.5042 13.7348 11.0116 15.2263 12.9302 17.0173C15.147 19.0862 16.9221 19.3597 18.078 19.0796C18.7337 18.9209 19.2574 18.2845 19.588 17.7633C19.8134 17.4074 19.6354 16.9356 19.2309 16.8194Z" fill="#242323"/>
</g>
<defs>
<clipPath id="clip0_421_9013">
<rect width="30" height="30" fill="white"/>
</clipPath>
</defs>
</svg>
